<svg xml:space="preserve" viewBox="0 0 99.75 99.5" y="0px" x="0px" version="1.1" xmlns:xlink="http://www.w3.org/1999/xlink" xmlns="http://www.w3.org/2000/svg" style="max-height: 500px" width="99.75" height="99.5"><g display="none"><rect height="397" width="1158" fill="#000000" display="inline" y="-227" x="-8"/></g><g><path d="M93.393,44.642h-4.857c-2.295-6.903-8.887-11.908-16.652-11.908c-7.764,0-14.356,5.005-16.651,11.908   c0,0-2.823-1.503-6.077-1.405c-2.913,0.087-5.517,1.405-5.517,1.405c-2.295-6.903-8.887-11.908-16.652-11.908   c-7.765,0-14.357,5.005-16.652,11.908h-4.3c0,0-1.035,1.219-1.035,3.755s1.035,3.242,1.035,3.242h3.509   c0.841,8.754,8.34,15.628,17.442,15.628c8.756,0,16.01-6.366,17.3-14.642c-0.001-0.028-0.01-0.054-0.01-0.082   c0-2.335,2.304-4.227,5.145-4.227c2.725,0,4.932,1.746,5.111,3.947c1.131,8.452,8.468,15.004,17.351,15.004   c9.103,0,16.601-6.873,17.442-15.628h4.067c0,0,1.607-0.385,1.607-3.417C95,45.481,93.393,44.642,93.393,44.642z M41.572,51.638   c-0.83,7.208-7.05,12.829-14.585,12.829c-7.535,0-13.755-5.621-14.585-12.829C12.34,51.1,12.301,50.555,12.301,50   c0-1.894,0.381-3.699,1.056-5.358c2.167-5.33,7.454-9.109,13.63-9.109c6.176,0,11.463,3.779,13.63,9.109   c0.675,1.659,1.056,3.464,1.056,5.358C41.673,50.555,41.634,51.1,41.572,51.638z M86.468,51.638   c-0.83,7.208-7.05,12.829-14.585,12.829c-7.534,0-13.754-5.621-14.583-12.829C57.238,51.1,57.199,50.555,57.199,50   c0-1.894,0.381-3.699,1.056-5.358c2.167-5.33,7.454-9.109,13.628-9.109c6.176,0,11.463,3.779,13.63,9.109   c0.675,1.659,1.056,3.464,1.056,5.358C86.569,50.555,86.53,51.1,86.468,51.638z"/></g><text font-family="'Helvetica Neue', Helvetica, Arial-Unicode, Arial, Sans-serif" font-weight="bold" font-size="5px" fill="#000000" y="115" x="0">Created by Maxim Kulikov</text><text font-family="'Helvetica Neue', Helvetica, Arial-Unicode, Arial, Sans-serif" font-weight="bold" font-size="5px" fill="#000000" y="120" x="0">from the Noun Project</text></svg>